<svg width="468" height="300" viewBox="0 0 156 100" fill="none" xmlns="http://www.w3.org/2000/svg">
<path d="M156 0H0V100H156V0Z" fill="#FFA300"/>
<path d="M29.4645 68.4864H27.5743V71.3089C27.5743 73.3029 26.9599 74.9335 25.306 74.9335C24.8936 74.9335 24.3652 74.8449 24 74.743V73.0503C24.1718 73.1079 24.4854 73.1611 24.6702 73.1611C25.3962 73.1611 25.4821 72.0799 25.4821 70.9855V66.9266H31.5695V74.8626H29.4731V68.4864H29.4645Z" fill="white"/>
<path d="M33.3223 74.8626V66.9266H35.4187V69.6694H36.5013C38.37 69.6694 39.3109 70.7063 39.3109 72.2572C39.3109 74.0074 38.4044 74.8671 36.1447 74.8671H33.3223V74.8626ZM35.4101 71.1849V73.3605H35.9514C36.6431 73.3605 37.2144 73.0946 37.2144 72.2793C37.2144 71.464 36.6645 71.1849 35.96 71.1849H35.4101Z" fill="white"/>
<path d="M40.6814 74.8626V66.9266H44.0967C45.523 66.9266 46.5712 67.5957 46.5712 68.9339C46.5712 69.9264 46.0857 70.4848 45.2094 70.7728V70.8082C46.249 71.0298 46.7645 71.6457 46.7645 72.5939C46.7645 74.4107 45.2523 74.8671 43.8261 74.8671H40.6814V74.8626ZM42.7692 68.3844V70.0682H43.3406C43.9893 70.0682 44.4748 69.8999 44.4748 69.2086C44.4748 68.5174 44.0323 68.3844 43.3621 68.3844H42.7692ZM42.7692 71.4817V73.3782H43.375C44.101 73.3782 44.6595 73.2453 44.6595 72.4521C44.6595 71.5837 44.0752 71.4817 43.3965 71.4817H42.7692Z" fill="white"/>
<path d="M48.3796 66.9266H50.489V74.8626H48.3796V66.9266Z" fill="white"/>
<path d="M52.2932 74.8626V66.9266H55.7085C57.1348 66.9266 58.183 67.5957 58.183 68.9339C58.183 69.9264 57.6976 70.4848 56.8212 70.7728V70.8082C57.8608 71.0298 58.3763 71.6457 58.3763 72.5939C58.3763 74.4107 56.8641 74.8671 55.4379 74.8671H52.2932V74.8626ZM54.3811 68.3844V70.0682H54.9524C55.6011 70.0682 56.0866 69.8999 56.0866 69.2086C56.0866 68.5174 55.6441 68.3844 54.9739 68.3844H54.3811ZM54.3811 71.4817V73.3782H54.9868C55.7128 73.3782 56.2713 73.2453 56.2713 72.4521C56.2713 71.5837 55.687 71.4817 55.0083 71.4817H54.3811Z" fill="white"/>
<path d="M59.7083 70.8968C59.7083 68.3977 61.4911 66.7937 63.9785 66.7937C66.4658 66.7937 68.2701 68.4332 68.2701 70.8968C68.2701 73.3605 66.5088 75 63.9785 75C61.4481 75 59.7083 73.3827 59.7083 70.8968ZM61.882 70.8968C61.882 72.2129 62.694 73.4181 63.9785 73.4181C65.263 73.4181 66.0964 72.204 66.0964 70.8968C66.0964 69.5277 65.2973 68.3756 63.9785 68.3756C62.6596 68.3756 61.882 69.5144 61.882 70.8968Z" fill="white"/>
<path d="M69.8037 74.8626V66.9266H75.2081V68.4553H71.8916V70.0727H73.2749C74.7656 70.0727 75.8353 70.8525 75.8353 72.4699C75.8353 74.2201 74.5164 74.8671 73.1331 74.8671H69.8037V74.8626ZM71.8916 71.4862V73.3827H72.5059C73.2405 73.3827 73.7259 73.1833 73.7259 72.4566C73.7259 71.6546 73.2061 71.4862 72.5274 71.4862H71.8916Z" fill="white"/>
<path d="M82.2792 68.4864H80.389V71.3089C80.389 73.3029 79.7746 74.9335 78.1207 74.9335C77.7083 74.9335 77.1799 74.8449 76.8147 74.743V73.0503C76.9865 73.1079 77.3001 73.1611 77.4849 73.1611C78.2109 73.1611 78.2968 72.0799 78.2968 70.9855V66.9266H84.3842V74.8626H82.2878V68.4864H82.2792Z" fill="white"/>
<path d="M86.137 66.9266H91.3781V68.4553H88.2334V70.0594H91.0773V71.5881H88.2334V73.3384H91.4983V74.8671H86.137V66.931V66.9266Z" fill="white"/>
<path d="M98.2904 71.4995H95.0383V74.8671H92.9419V66.931H95.0383V69.953H98.2904V66.931H100.387V74.8671H98.2904V71.4995Z" fill="white"/>
<path d="M102.135 66.9266H107.376V68.4553H104.232V70.0594H107.076V71.5881H104.232V73.3384H107.497V74.8671H102.135V66.931V66.9266Z" fill="white"/>
<path d="M111.045 72.1198V74.8626H108.949V66.9266H111.771C113.76 66.9266 114.843 67.7419 114.843 69.5365C114.843 71.1538 113.709 72.1242 111.827 72.1242H111.049L111.045 72.1198ZM111.037 68.442V70.6044H111.492C112.184 70.6044 112.746 70.3385 112.746 69.5099C112.746 68.6813 112.175 68.4376 111.483 68.4376H111.041L111.037 68.442Z" fill="white"/>
<path d="M118.331 74.8626H116.235V66.9266H121.433V68.4864H118.331V74.8626Z" fill="white"/>
<path d="M122.438 70.8968C122.438 68.3977 124.221 66.7937 126.708 66.7937C129.196 66.7937 131 68.4332 131 70.8968C131 73.3605 129.239 75 126.708 75C124.178 75 122.438 73.3827 122.438 70.8968ZM124.612 70.8968C124.612 72.2129 125.424 73.4181 126.708 73.4181C127.993 73.4181 128.826 72.204 128.826 70.8968C128.826 69.5277 128.027 68.3756 126.708 68.3756C125.389 68.3756 124.612 69.5144 124.612 70.8968Z" fill="white"/>
<path d="M65.976 40.2207C65.976 38.4039 66.2122 36.7113 66.659 35.1604L63.0289 25.2659H55.9019L44.5261 55.6984H52.4006L59.1926 34.1191H59.3601L66.1951 55.6984H74.1942L73.6743 54.276C68.9745 51.6129 65.976 46.597 65.976 40.2207Z" fill="white"/>
<path d="M82.0387 46.8717C85.5454 46.8717 88.3881 43.9395 88.3881 40.3226C88.3881 36.7056 85.5454 33.7735 82.0387 33.7735C78.5319 33.7735 75.6892 36.7056 75.6892 40.3226C75.6892 43.9395 78.5319 46.8717 82.0387 46.8717Z" fill="white"/>
<path d="M108.132 42.8394V36.9505H97.8521C98.0196 37.952 98.1098 38.9977 98.1098 40.0877C98.1098 41.036 98.0411 41.9532 97.9122 42.8394H108.137H108.132Z" fill="white"/>
<path d="M95.8802 31.4428V31.2345H108.841V25H89.0066V25.5273C91.915 26.7458 94.2906 28.762 95.8802 31.4383V31.4428Z" fill="white"/>
<path d="M95.8802 49.1581V48.7505C94.2864 51.4711 91.9107 53.5626 89.0066 54.8387V55.4325H109.593V49.1581H95.8845H95.8802Z" fill="white"/>
</svg>
